<svg xmlns="http://www.w3.org/2000/svg" viewBox="0 0 120 120" x="0px" y="0px" fill="#5163BA"><title>24 Complete</title><path d="M105.32,55.58A16,16,0,0,0,94,50.9H92A18,18,0,0,0,66.89,34.36,23,23,0,0,0,24.57,51,16,16,0,0,0,26,82.9H72.17l-3,3L80.36,97.1,86,91.43l8.54-8.54a16,16,0,0,0,10.75-27.31ZM84.61,90l-4.25,4.24L72,85.9l3-3,1.24-1.24,1.24,1.24,2.88,2.88,2.88-2.88,2-2L91.12,75l4.24,4.24L93.72,80.9l-2,2Zm12.22-9.4,1.36-1.36-7.07-7.07L82.41,80.9l-2,2,0,0,0,0-2-2-2.07-2.07L74.17,80.9H26A14,14,0,0,1,24.75,53l2.27-.2-.5-2.23A20.73,20.73,0,0,1,26,45.9,21,21,0,0,1,65.16,35.37l.9,1.53,1.62-.7A16,16,0,0,1,90,50.9v2h4a14,14,0,0,1,2.83,27.72Z"/></svg>