<svg xmlns="http://www.w3.org/2000/svg" width="24" height="24" fill="none">
  <path fill="#25252D" fill-rule="evenodd" d="M23.744 12.494L21.97 10.72a.75.75 0 0 1-.22-.53V8.018c0-2.006-.209-2.734-.601-3.467a4.09 4.09 0 0 0-1.701-1.7c-.733-.393-1.46-.602-3.467-.602h-2.869a.15.15 0 0 1-.106-.256L14.78.22a.75.75 0 0 1 .53-.22h.998c2.675 0 3.645.278 4.622.801A5.452 5.452 0 0 1 23.2 3.07c.522.978.801 1.948.801 4.623v4.696a.15.15 0 0 1-.256.106zm-12.238 11.25l1.774-1.774a.75.75 0 0 1 .53-.22h2.171c2.006 0 2.734-.209 3.467-.601a4.09 4.09 0 0 0 1.701-1.701c.392-.733.601-1.46.601-3.467v-2.869a.15.15 0 0 1 .256-.106l1.774 1.774c.141.141.22.332.22.53v.998c0 2.675-.279 3.645-.801 4.622A5.452 5.452 0 0 1 20.93 23.2c-.977.522-1.947.801-4.622.801h-4.696a.15.15 0 0 1-.106-.256zM.256 11.506L2.03 13.28c.141.141.22.332.22.53v2.171c0 2.006.209 2.734.601 3.467a4.09 4.09 0 0 0 1.701 1.701c.733.392 1.46.601 3.467.601h2.869a.15.15 0 0 1 .106.256L9.22 23.78a.75.75 0 0 1-.53.22h-.998c-2.675 0-3.645-.279-4.623-.801A5.452 5.452 0 0 1 .801 20.93C.278 19.953 0 18.983 0 16.308v-4.696a.15.15 0 0 1 .256-.106zM12.494.256L10.72 2.03a.75.75 0 0 1-.53.22H8.018c-2.006 0-2.734.209-3.467.601a4.089 4.089 0 0 0-1.7 1.701c-.393.733-.602 1.46-.602 3.467v2.869a.15.15 0 0 1-.256.106L.22 9.22A.75.75 0 0 1 0 8.69v-.998c0-2.675.278-3.645.801-4.623A5.452 5.452 0 0 1 3.07.801C4.047.278 5.017 0 7.692 0h4.696a.15.15 0 0 1 .106.256zm7.502 8.502l-2.419-2.313a1.494 1.494 0 0 0-.547-.349A1.497 1.497 0 0 0 16.5 6H9.36a.15.15 0 0 1-.106-.256l1.776-1.775a.75.75 0 0 1 .53-.219h5.69a3 3 0 0 1 3 3v1.9a.15.15 0 0 1-.254.108zm-4.754 11.24l2.313-2.42c.16-.16.276-.346.349-.546.062-.165.096-.343.096-.53v-7.14a.15.15 0 0 1 .256-.106l1.775 1.776c.14.14.219.332.219.53v5.69a3 3 0 0 1-3 3h-1.9a.15.15 0 0 1-.108-.254zM4.004 15.242l2.419 2.313c.16.16.347.276.547.349.164.062.343.096.53.096h7.14a.15.15 0 0 1 .106.256l-1.776 1.775a.75.75 0 0 1-.53.219H6.75a3 3 0 0 1-3-3v-1.9a.15.15 0 0 1 .254-.108zM8.758 4.004L6.445 6.423c-.16.16-.276.347-.349.547A1.497 1.497 0 0 0 6 7.5v7.14a.15.15 0 0 1-.256.106L3.969 12.97a.75.75 0 0 1-.219-.53V6.75a3 3 0 0 1 3-3h1.9a.15.15 0 0 1 .108.254z" clip-rule="evenodd"/>
</svg>
